<mxfile host="app.diagrams.net" modified="2023-10-25T18:06:34.324Z" agent="Mozilla/5.0 (Windows NT 10.0; Win64; x64) AppleWebKit/537.36 (KHTML, like Gecko) Chrome/118.0.0.0 Safari/537.36" etag="KOjJIFDheOQK_J8azLZ3" version="22.0.8" type="github">
  <diagram id="C5RBs43oDa-KdzZeNtuy" name="Page-1">
    <mxGraphModel dx="794" dy="1117" grid="1" gridSize="10" guides="1" tooltips="1" connect="1" arrows="1" fold="1" page="1" pageScale="1" pageWidth="827" pageHeight="1169" math="0" shadow="0">
      <root>
        <mxCell id="WIyWlLk6GJQsqaUBKTNV-0" />
        <mxCell id="WIyWlLk6GJQsqaUBKTNV-1" parent="WIyWlLk6GJQsqaUBKTNV-0" />
        <mxCell id="XiPhmAv751nStexA71sT-23" value="" style="edgeStyle=orthogonalEdgeStyle;rounded=0;orthogonalLoop=1;jettySize=auto;html=1;" edge="1" parent="WIyWlLk6GJQsqaUBKTNV-1" source="XiPhmAv751nStexA71sT-0" target="XiPhmAv751nStexA71sT-1">
          <mxGeometry relative="1" as="geometry" />
        </mxCell>
        <mxCell id="XiPhmAv751nStexA71sT-0" value="Insert participant names" style="rounded=1;whiteSpace=wrap;html=1;" vertex="1" parent="WIyWlLk6GJQsqaUBKTNV-1">
          <mxGeometry x="340" y="80" width="120" height="60" as="geometry" />
        </mxCell>
        <mxCell id="XiPhmAv751nStexA71sT-22" value="" style="edgeStyle=orthogonalEdgeStyle;rounded=0;orthogonalLoop=1;jettySize=auto;html=1;" edge="1" parent="WIyWlLk6GJQsqaUBKTNV-1" source="XiPhmAv751nStexA71sT-1" target="XiPhmAv751nStexA71sT-2">
          <mxGeometry relative="1" as="geometry" />
        </mxCell>
        <mxCell id="XiPhmAv751nStexA71sT-1" value="Insert item names" style="rounded=1;whiteSpace=wrap;html=1;" vertex="1" parent="WIyWlLk6GJQsqaUBKTNV-1">
          <mxGeometry x="340" y="200" width="120" height="40" as="geometry" />
        </mxCell>
        <mxCell id="XiPhmAv751nStexA71sT-21" value="" style="edgeStyle=orthogonalEdgeStyle;rounded=0;orthogonalLoop=1;jettySize=auto;html=1;" edge="1" parent="WIyWlLk6GJQsqaUBKTNV-1" source="XiPhmAv751nStexA71sT-2">
          <mxGeometry relative="1" as="geometry">
            <mxPoint x="400" y="379" as="targetPoint" />
          </mxGeometry>
        </mxCell>
        <mxCell id="XiPhmAv751nStexA71sT-2" value="Insert each participant&#39;s valuation of each item" style="rounded=1;whiteSpace=wrap;html=1;" vertex="1" parent="WIyWlLk6GJQsqaUBKTNV-1">
          <mxGeometry x="340" y="290" width="120" height="60" as="geometry" />
        </mxCell>
        <mxCell id="XiPhmAv751nStexA71sT-3" value="Find max valuation for item" style="rounded=1;whiteSpace=wrap;html=1;" vertex="1" parent="WIyWlLk6GJQsqaUBKTNV-1">
          <mxGeometry x="340" y="510" width="120" height="50" as="geometry" />
        </mxCell>
        <mxCell id="XiPhmAv751nStexA71sT-27" value="" style="edgeStyle=orthogonalEdgeStyle;rounded=0;orthogonalLoop=1;jettySize=auto;html=1;" edge="1" parent="WIyWlLk6GJQsqaUBKTNV-1" source="XiPhmAv751nStexA71sT-6" target="XiPhmAv751nStexA71sT-16">
          <mxGeometry relative="1" as="geometry" />
        </mxCell>
        <mxCell id="XiPhmAv751nStexA71sT-6" value="Yes" style="rounded=1;whiteSpace=wrap;html=1;" vertex="1" parent="WIyWlLk6GJQsqaUBKTNV-1">
          <mxGeometry x="230" y="700" width="80" height="30" as="geometry" />
        </mxCell>
        <mxCell id="XiPhmAv751nStexA71sT-31" value="" style="edgeStyle=orthogonalEdgeStyle;rounded=0;orthogonalLoop=1;jettySize=auto;html=1;" edge="1" parent="WIyWlLk6GJQsqaUBKTNV-1" source="XiPhmAv751nStexA71sT-7" target="XiPhmAv751nStexA71sT-15">
          <mxGeometry relative="1" as="geometry" />
        </mxCell>
        <mxCell id="XiPhmAv751nStexA71sT-7" value="No" style="rounded=1;whiteSpace=wrap;html=1;" vertex="1" parent="WIyWlLk6GJQsqaUBKTNV-1">
          <mxGeometry x="480" y="700" width="80" height="30" as="geometry" />
        </mxCell>
        <mxCell id="XiPhmAv751nStexA71sT-8" value="same value?" style="rhombus;whiteSpace=wrap;html=1;" vertex="1" parent="WIyWlLk6GJQsqaUBKTNV-1">
          <mxGeometry x="360" y="610" width="80" height="80" as="geometry" />
        </mxCell>
        <mxCell id="XiPhmAv751nStexA71sT-14" value="Calculate sum of each participants&#39; evaluation and divide by n&lt;br&gt;" style="rounded=1;whiteSpace=wrap;html=1;" vertex="1" parent="WIyWlLk6GJQsqaUBKTNV-1">
          <mxGeometry x="340" y="380" width="130" height="70" as="geometry" />
        </mxCell>
        <mxCell id="XiPhmAv751nStexA71sT-38" style="edgeStyle=orthogonalEdgeStyle;rounded=0;orthogonalLoop=1;jettySize=auto;html=1;exitX=0.5;exitY=1;exitDx=0;exitDy=0;" edge="1" parent="WIyWlLk6GJQsqaUBKTNV-1" source="XiPhmAv751nStexA71sT-15" target="XiPhmAv751nStexA71sT-36">
          <mxGeometry relative="1" as="geometry">
            <Array as="points">
              <mxPoint x="520" y="910" />
              <mxPoint x="420" y="910" />
            </Array>
          </mxGeometry>
        </mxCell>
        <mxCell id="XiPhmAv751nStexA71sT-15" value="Participant with highest value gets the item" style="rounded=1;whiteSpace=wrap;html=1;" vertex="1" parent="WIyWlLk6GJQsqaUBKTNV-1">
          <mxGeometry x="465" y="770" width="110" height="50" as="geometry" />
        </mxCell>
        <mxCell id="XiPhmAv751nStexA71sT-28" value="" style="edgeStyle=orthogonalEdgeStyle;rounded=0;orthogonalLoop=1;jettySize=auto;html=1;" edge="1" parent="WIyWlLk6GJQsqaUBKTNV-1" source="XiPhmAv751nStexA71sT-16" target="XiPhmAv751nStexA71sT-18">
          <mxGeometry relative="1" as="geometry" />
        </mxCell>
        <mxCell id="XiPhmAv751nStexA71sT-16" value="Subtract item(s) value from divided sum for both participants" style="rounded=1;whiteSpace=wrap;html=1;" vertex="1" parent="WIyWlLk6GJQsqaUBKTNV-1">
          <mxGeometry x="209.38" y="790" width="121.25" height="50" as="geometry" />
        </mxCell>
        <mxCell id="XiPhmAv751nStexA71sT-37" value="" style="edgeStyle=orthogonalEdgeStyle;rounded=0;orthogonalLoop=1;jettySize=auto;html=1;" edge="1" parent="WIyWlLk6GJQsqaUBKTNV-1" source="XiPhmAv751nStexA71sT-18" target="XiPhmAv751nStexA71sT-36">
          <mxGeometry relative="1" as="geometry" />
        </mxCell>
        <mxCell id="XiPhmAv751nStexA71sT-18" value="Participant with the biggest diff gets the item" style="rounded=1;whiteSpace=wrap;html=1;" vertex="1" parent="WIyWlLk6GJQsqaUBKTNV-1">
          <mxGeometry x="210.63" y="880" width="120" height="60" as="geometry" />
        </mxCell>
        <mxCell id="XiPhmAv751nStexA71sT-19" value="" style="endArrow=classic;html=1;rounded=0;entryX=0.5;entryY=0;entryDx=0;entryDy=0;exitX=0.5;exitY=1;exitDx=0;exitDy=0;" edge="1" parent="WIyWlLk6GJQsqaUBKTNV-1" source="XiPhmAv751nStexA71sT-3" target="XiPhmAv751nStexA71sT-8">
          <mxGeometry width="50" height="50" relative="1" as="geometry">
            <mxPoint x="390" y="570" as="sourcePoint" />
            <mxPoint x="430" y="550" as="targetPoint" />
          </mxGeometry>
        </mxCell>
        <mxCell id="XiPhmAv751nStexA71sT-20" value="" style="endArrow=classic;html=1;rounded=0;exitX=0.462;exitY=1;exitDx=0;exitDy=0;entryX=0.5;entryY=0;entryDx=0;entryDy=0;exitPerimeter=0;" edge="1" parent="WIyWlLk6GJQsqaUBKTNV-1" source="XiPhmAv751nStexA71sT-14" target="XiPhmAv751nStexA71sT-3">
          <mxGeometry width="50" height="50" relative="1" as="geometry">
            <mxPoint x="380" y="600" as="sourcePoint" />
            <mxPoint x="430" y="550" as="targetPoint" />
          </mxGeometry>
        </mxCell>
        <mxCell id="XiPhmAv751nStexA71sT-26" value="" style="endArrow=classic;html=1;rounded=0;entryX=0.5;entryY=0;entryDx=0;entryDy=0;exitX=0;exitY=0.5;exitDx=0;exitDy=0;" edge="1" parent="WIyWlLk6GJQsqaUBKTNV-1" source="XiPhmAv751nStexA71sT-8" target="XiPhmAv751nStexA71sT-6">
          <mxGeometry width="50" height="50" relative="1" as="geometry">
            <mxPoint x="380" y="600" as="sourcePoint" />
            <mxPoint x="430" y="550" as="targetPoint" />
          </mxGeometry>
        </mxCell>
        <mxCell id="XiPhmAv751nStexA71sT-29" value="" style="endArrow=classic;html=1;rounded=0;entryX=0.5;entryY=0;entryDx=0;entryDy=0;exitX=1;exitY=0.5;exitDx=0;exitDy=0;" edge="1" parent="WIyWlLk6GJQsqaUBKTNV-1" source="XiPhmAv751nStexA71sT-8" target="XiPhmAv751nStexA71sT-7">
          <mxGeometry width="50" height="50" relative="1" as="geometry">
            <mxPoint x="380" y="600" as="sourcePoint" />
            <mxPoint x="430" y="550" as="targetPoint" />
          </mxGeometry>
        </mxCell>
        <mxCell id="XiPhmAv751nStexA71sT-33" value="" style="endArrow=classic;html=1;rounded=0;entryX=0;entryY=0.5;entryDx=0;entryDy=0;exitX=0;exitY=0.5;exitDx=0;exitDy=0;" edge="1" parent="WIyWlLk6GJQsqaUBKTNV-1" source="XiPhmAv751nStexA71sT-39" target="XiPhmAv751nStexA71sT-3">
          <mxGeometry width="50" height="50" relative="1" as="geometry">
            <mxPoint x="100" y="960" as="sourcePoint" />
            <mxPoint x="150" y="590" as="targetPoint" />
            <Array as="points">
              <mxPoint x="120" y="1075" />
              <mxPoint x="120" y="535" />
            </Array>
          </mxGeometry>
        </mxCell>
        <mxCell id="XiPhmAv751nStexA71sT-40" value="" style="edgeStyle=orthogonalEdgeStyle;rounded=0;orthogonalLoop=1;jettySize=auto;html=1;" edge="1" parent="WIyWlLk6GJQsqaUBKTNV-1" source="XiPhmAv751nStexA71sT-36" target="XiPhmAv751nStexA71sT-39">
          <mxGeometry relative="1" as="geometry" />
        </mxCell>
        <mxCell id="XiPhmAv751nStexA71sT-42" value="" style="edgeStyle=orthogonalEdgeStyle;rounded=0;orthogonalLoop=1;jettySize=auto;html=1;" edge="1" parent="WIyWlLk6GJQsqaUBKTNV-1" source="XiPhmAv751nStexA71sT-36" target="XiPhmAv751nStexA71sT-41">
          <mxGeometry relative="1" as="geometry" />
        </mxCell>
        <mxCell id="XiPhmAv751nStexA71sT-36" value="More items to divide?" style="rhombus;whiteSpace=wrap;html=1;rounded=1;" vertex="1" parent="WIyWlLk6GJQsqaUBKTNV-1">
          <mxGeometry x="370" y="980" width="100" height="80" as="geometry" />
        </mxCell>
        <mxCell id="XiPhmAv751nStexA71sT-39" value="Yes" style="whiteSpace=wrap;html=1;rounded=1;" vertex="1" parent="WIyWlLk6GJQsqaUBKTNV-1">
          <mxGeometry x="240" y="1060" width="60" height="30" as="geometry" />
        </mxCell>
        <mxCell id="XiPhmAv751nStexA71sT-44" value="" style="edgeStyle=orthogonalEdgeStyle;rounded=0;orthogonalLoop=1;jettySize=auto;html=1;" edge="1" parent="WIyWlLk6GJQsqaUBKTNV-1" source="XiPhmAv751nStexA71sT-41" target="XiPhmAv751nStexA71sT-43">
          <mxGeometry relative="1" as="geometry" />
        </mxCell>
        <mxCell id="XiPhmAv751nStexA71sT-41" value="No" style="whiteSpace=wrap;html=1;rounded=1;" vertex="1" parent="WIyWlLk6GJQsqaUBKTNV-1">
          <mxGeometry x="525" y="1060" width="50" height="30" as="geometry" />
        </mxCell>
        <mxCell id="XiPhmAv751nStexA71sT-46" value="" style="edgeStyle=orthogonalEdgeStyle;rounded=0;orthogonalLoop=1;jettySize=auto;html=1;" edge="1" parent="WIyWlLk6GJQsqaUBKTNV-1" source="XiPhmAv751nStexA71sT-43" target="XiPhmAv751nStexA71sT-45">
          <mxGeometry relative="1" as="geometry" />
        </mxCell>
        <mxCell id="XiPhmAv751nStexA71sT-43" value="Subtract real sum from expected sum for each participant" style="whiteSpace=wrap;html=1;rounded=1;" vertex="1" parent="WIyWlLk6GJQsqaUBKTNV-1">
          <mxGeometry x="490" y="1140" width="120" height="60" as="geometry" />
        </mxCell>
        <mxCell id="XiPhmAv751nStexA71sT-48" value="" style="edgeStyle=orthogonalEdgeStyle;rounded=0;orthogonalLoop=1;jettySize=auto;html=1;" edge="1" parent="WIyWlLk6GJQsqaUBKTNV-1" source="XiPhmAv751nStexA71sT-45" target="XiPhmAv751nStexA71sT-47">
          <mxGeometry relative="1" as="geometry" />
        </mxCell>
        <mxCell id="XiPhmAv751nStexA71sT-45" value="Add previous results together" style="whiteSpace=wrap;html=1;rounded=1;" vertex="1" parent="WIyWlLk6GJQsqaUBKTNV-1">
          <mxGeometry x="490" y="1250" width="120" height="45" as="geometry" />
        </mxCell>
        <mxCell id="XiPhmAv751nStexA71sT-51" value="" style="edgeStyle=orthogonalEdgeStyle;rounded=0;orthogonalLoop=1;jettySize=auto;html=1;" edge="1" parent="WIyWlLk6GJQsqaUBKTNV-1" source="XiPhmAv751nStexA71sT-47" target="XiPhmAv751nStexA71sT-50">
          <mxGeometry relative="1" as="geometry" />
        </mxCell>
        <mxCell id="XiPhmAv751nStexA71sT-47" value="Divide by n (participants)" style="whiteSpace=wrap;html=1;rounded=1;" vertex="1" parent="WIyWlLk6GJQsqaUBKTNV-1">
          <mxGeometry x="490" y="1350" width="120" height="37.5" as="geometry" />
        </mxCell>
        <mxCell id="XiPhmAv751nStexA71sT-49" style="edgeStyle=orthogonalEdgeStyle;rounded=0;orthogonalLoop=1;jettySize=auto;html=1;exitX=0.5;exitY=1;exitDx=0;exitDy=0;" edge="1" parent="WIyWlLk6GJQsqaUBKTNV-1" source="XiPhmAv751nStexA71sT-45" target="XiPhmAv751nStexA71sT-45">
          <mxGeometry relative="1" as="geometry" />
        </mxCell>
        <mxCell id="XiPhmAv751nStexA71sT-50" value="Add result to each participants expected sum" style="whiteSpace=wrap;html=1;rounded=1;" vertex="1" parent="WIyWlLk6GJQsqaUBKTNV-1">
          <mxGeometry x="490" y="1440" width="120" height="60" as="geometry" />
        </mxCell>
      </root>
    </mxGraphModel>
  </diagram>
</mxfile>
